<?xml version="1.0" standalone="no"?>
<!DOCTYPE svg PUBLIC "-//W3C//DTD SVG 1.1//EN" "http://www.w3.org/Graphics/SVG/1.1/DTD/svg11.dtd">

<svg width="538.0" height="118.0" viewBox="0 0 538.0 118.0" version="1.1" xmlns="http://www.w3.org/2000/svg" xmlns:xlink="http://www.w3.org/1999/xlink">
<!-- automatically generated by aafigure --><text x="101.0" y="14.9" font-family="monospace" font-size="14.0" fill="#000000" >
  Edgerouter ER-4
</text>
<text x="297.0" y="112.89999999999999" font-family="monospace" font-size="14.0" fill="#000000" >
  Internet (eth3)
</text>
<line x1="10.0" y1="24.0" x2="430.0" y2="24.0" stroke="#000000" stroke-width="2.0" />
<line x1="10.0" y1="24.0" x2="10.0" y2="80.0" stroke="#000000" stroke-width="2.0" />
<line x1="38.0" y1="38.0" x2="108.0" y2="38.0" stroke="#000000" stroke-width="2.0" />
<line x1="136.0" y1="38.0" x2="206.0" y2="38.0" stroke="#000000" stroke-width="2.0" />
<line x1="234.0" y1="38.0" x2="304.0" y2="38.0" stroke="#000000" stroke-width="2.0" />
<line x1="332.0" y1="38.0" x2="402.0" y2="38.0" stroke="#000000" stroke-width="2.0" />
<line x1="430.0" y1="24.0" x2="430.0" y2="52.0" stroke="#000000" stroke-width="2.0" />
<line x1="38.0" y1="38.0" x2="38.0" y2="66.0" stroke="#000000" stroke-width="2.0" />
<line x1="108.0" y1="38.0" x2="108.0" y2="66.0" stroke="#000000" stroke-width="2.0" />
<line x1="136.0" y1="38.0" x2="136.0" y2="66.0" stroke="#000000" stroke-width="2.0" />
<line x1="206.0" y1="38.0" x2="206.0" y2="66.0" stroke="#000000" stroke-width="2.0" />
<line x1="234.0" y1="38.0" x2="234.0" y2="66.0" stroke="#000000" stroke-width="2.0" />
<line x1="304.0" y1="38.0" x2="304.0" y2="66.0" stroke="#000000" stroke-width="2.0" />
<line x1="332.0" y1="38.0" x2="332.0" y2="66.0" stroke="#000000" stroke-width="2.0" />
<line x1="402.0" y1="38.0" x2="402.0" y2="66.0" stroke="#000000" stroke-width="2.0" />
<line x1="38.0" y1="66.0" x2="108.0" y2="66.0" stroke="#000000" stroke-width="2.0" />
<line x1="136.0" y1="66.0" x2="206.0" y2="66.0" stroke="#000000" stroke-width="2.0" />
<line x1="234.0" y1="66.0" x2="304.0" y2="66.0" stroke="#000000" stroke-width="2.0" />
<line x1="332.0" y1="66.0" x2="402.0" y2="66.0" stroke="#000000" stroke-width="2.0" />
<line x1="430.0" y1="52.0" x2="430.0" y2="80.0" stroke="#000000" stroke-width="2.0" />
<line x1="10.0" y1="80.0" x2="66.0" y2="80.0" stroke="#000000" stroke-width="2.0" />
<line x1="66.0" y1="80.0" x2="360.0" y2="80.0" stroke="#000000" stroke-width="2.0" />
<line x1="360.0" y1="80.0" x2="430.0" y2="80.0" stroke="#000000" stroke-width="2.0" />
<line x1="66.0" y1="80.0" x2="66.0" y2="108.0" stroke="#000000" stroke-width="2.0" />
<line x1="360.0" y1="80.0" x2="360.0" y2="101.0" stroke="#000000" stroke-width="2.0" />
<line x1="52.0" y1="108.0" x2="66.0" y2="108.0" stroke="#000000" stroke-width="2.0" />
<text x="45.0" y="56.9" font-family="monospace" font-size="14.0" fill="#000000" >
  eth0
</text>
<text x="143.0" y="56.9" font-family="monospace" font-size="14.0" fill="#000000" >
  eth1
</text>
<text x="241.0" y="56.9" font-family="monospace" font-size="14.0" fill="#000000" >
  eth2
</text>
<text x="339.0" y="56.9" font-family="monospace" font-size="14.0" fill="#000000" >
  eth3
</text>
</svg>
