<?xml version="1.0" standalone="no"?>
<!DOCTYPE svg PUBLIC "-//W3C//DTD SVG 1.1//EN" "http://www.w3.org/Graphics/SVG/1.1/DTD/svg11.dtd">

<svg width="496.0" height="90.0" viewBox="0 0 496.0 90.0" version="1.1" xmlns="http://www.w3.org/2000/svg" xmlns:xlink="http://www.w3.org/1999/xlink">
<!-- automatically generated by aafigure --><text x="101.0" y="14.9" font-family="monospace" font-size="14.0" fill="#000000" >
  Unifi US-8-60W (Server)   
</text>
<line x1="52.0" y1="3.0" x2="52.0" y2="24.0" stroke="#000000" stroke-width="2.0" />
<line x1="10.0" y1="24.0" x2="52.0" y2="24.0" stroke="#000000" stroke-width="2.0" />
<line x1="52.0" y1="24.0" x2="486.0" y2="24.0" stroke="#000000" stroke-width="2.0" />
<line x1="10.0" y1="24.0" x2="10.0" y2="80.0" stroke="#000000" stroke-width="2.0" />
<line x1="38.0" y1="38.0" x2="66.0" y2="38.0" stroke="#000000" stroke-width="2.0" />
<line x1="94.0" y1="38.0" x2="122.0" y2="38.0" stroke="#000000" stroke-width="2.0" />
<line x1="150.0" y1="38.0" x2="178.0" y2="38.0" stroke="#000000" stroke-width="2.0" />
<line x1="206.0" y1="38.0" x2="234.0" y2="38.0" stroke="#000000" stroke-width="2.0" />
<line x1="262.0" y1="38.0" x2="290.0" y2="38.0" stroke="#000000" stroke-width="2.0" />
<line x1="318.0" y1="38.0" x2="346.0" y2="38.0" stroke="#000000" stroke-width="2.0" />
<line x1="374.0" y1="38.0" x2="402.0" y2="38.0" stroke="#000000" stroke-width="2.0" />
<line x1="430.0" y1="38.0" x2="458.0" y2="38.0" stroke="#000000" stroke-width="2.0" />
<line x1="486.0" y1="24.0" x2="486.0" y2="80.0" stroke="#000000" stroke-width="2.0" />
<line x1="38.0" y1="38.0" x2="38.0" y2="66.0" stroke="#000000" stroke-width="2.0" />
<line x1="66.0" y1="38.0" x2="66.0" y2="66.0" stroke="#000000" stroke-width="2.0" />
<line x1="94.0" y1="38.0" x2="94.0" y2="66.0" stroke="#000000" stroke-width="2.0" />
<line x1="122.0" y1="38.0" x2="122.0" y2="66.0" stroke="#000000" stroke-width="2.0" />
<line x1="150.0" y1="38.0" x2="150.0" y2="66.0" stroke="#000000" stroke-width="2.0" />
<line x1="178.0" y1="38.0" x2="178.0" y2="66.0" stroke="#000000" stroke-width="2.0" />
<line x1="206.0" y1="38.0" x2="206.0" y2="66.0" stroke="#000000" stroke-width="2.0" />
<line x1="234.0" y1="38.0" x2="234.0" y2="66.0" stroke="#000000" stroke-width="2.0" />
<line x1="262.0" y1="38.0" x2="262.0" y2="66.0" stroke="#000000" stroke-width="2.0" />
<line x1="290.0" y1="38.0" x2="290.0" y2="66.0" stroke="#000000" stroke-width="2.0" />
<line x1="318.0" y1="38.0" x2="318.0" y2="66.0" stroke="#000000" stroke-width="2.0" />
<line x1="346.0" y1="38.0" x2="346.0" y2="66.0" stroke="#000000" stroke-width="2.0" />
<line x1="374.0" y1="38.0" x2="374.0" y2="66.0" stroke="#000000" stroke-width="2.0" />
<line x1="402.0" y1="38.0" x2="402.0" y2="66.0" stroke="#000000" stroke-width="2.0" />
<line x1="430.0" y1="38.0" x2="430.0" y2="66.0" stroke="#000000" stroke-width="2.0" />
<line x1="458.0" y1="38.0" x2="458.0" y2="66.0" stroke="#000000" stroke-width="2.0" />
<line x1="38.0" y1="66.0" x2="66.0" y2="66.0" stroke="#000000" stroke-width="2.0" />
<line x1="94.0" y1="66.0" x2="122.0" y2="66.0" stroke="#000000" stroke-width="2.0" />
<line x1="150.0" y1="66.0" x2="178.0" y2="66.0" stroke="#000000" stroke-width="2.0" />
<line x1="206.0" y1="66.0" x2="234.0" y2="66.0" stroke="#000000" stroke-width="2.0" />
<line x1="262.0" y1="66.0" x2="290.0" y2="66.0" stroke="#000000" stroke-width="2.0" />
<line x1="318.0" y1="66.0" x2="346.0" y2="66.0" stroke="#000000" stroke-width="2.0" />
<line x1="374.0" y1="66.0" x2="402.0" y2="66.0" stroke="#000000" stroke-width="2.0" />
<line x1="430.0" y1="66.0" x2="458.0" y2="66.0" stroke="#000000" stroke-width="2.0" />
<line x1="10.0" y1="80.0" x2="486.0" y2="80.0" stroke="#000000" stroke-width="2.0" />
<text x="45.0" y="56.9" font-family="monospace" font-size="14.0" fill="#000000" >
  A
</text>
<text x="101.0" y="56.9" font-family="monospace" font-size="14.0" fill="#000000" >
  s
</text>
<text x="157.0" y="56.9" font-family="monospace" font-size="14.0" fill="#000000" >
  s
</text>
<text x="213.0" y="56.9" font-family="monospace" font-size="14.0" fill="#000000" >
  s
</text>
<text x="269.0" y="56.9" font-family="monospace" font-size="14.0" fill="#000000" >
  i
</text>
<text x="325.0" y="56.9" font-family="monospace" font-size="14.0" fill="#000000" >
  s
</text>
<text x="381.0" y="56.9" font-family="monospace" font-size="14.0" fill="#000000" >
  A
</text>
<text x="437.0" y="56.9" font-family="monospace" font-size="14.0" fill="#000000" >
  D
</text>
</svg>
