<?xml version="1.0" standalone="no"?>
<!DOCTYPE svg PUBLIC "-//W3C//DTD SVG 1.1//EN" "http://www.w3.org/Graphics/SVG/1.1/DTD/svg11.dtd">

<svg width="1000.0" height="496.0" viewBox="0 0 1000.0 496.0" version="1.1" xmlns="http://www.w3.org/2000/svg" xmlns:xlink="http://www.w3.org/1999/xlink">
<!-- automatically generated by aafigure --><text x="101.0" y="14.9" font-family="monospace" font-size="14.0" fill="#000000" >
  Edgerouter ER-4
</text>
<text x="297.0" y="112.89999999999999" font-family="monospace" font-size="14.0" fill="#000000" >
  Internet (eth3)
</text>
<text x="115.0" y="140.9" font-family="monospace" font-size="14.0" fill="#000000" >
  Unifi US-8-60W (Core)
</text>
<text x="381.0" y="238.90000000000003" font-family="monospace" font-size="14.0" fill="#000000" >
  Unifi AP 1 (8)
</text>
<text x="87.0" y="266.90000000000003" font-family="monospace" font-size="14.0" fill="#000000" >
  Unifi US-8-60W (Wired)
</text>
<text x="591.0" y="266.90000000000003" font-family="monospace" font-size="14.0" fill="#000000" >
  Unifi US-8-60W (Server)
</text>
<text x="213.0" y="364.90000000000003" font-family="monospace" font-size="14.0" fill="#000000" >
  Unifi AP 2 (5)
</text>
<text x="3.0" y="392.90000000000003" font-family="monospace" font-size="14.0" fill="#000000" >
  A = Trunk: All
</text>
<text x="3.0" y="406.90000000000003" font-family="monospace" font-size="14.0" fill="#000000" >
  W = Trunk: Wired
</text>
<text x="3.0" y="420.90000000000003" font-family="monospace" font-size="14.0" fill="#000000" >
  S = Trunk: Server
</text>
<text x="3.0" y="434.90000000000003" font-family="monospace" font-size="14.0" fill="#000000" >
  I = Trunk: Wifi
</text>
<text x="3.0" y="448.90000000000003" font-family="monospace" font-size="14.0" fill="#000000" >
  D = Disabled
</text>
<text x="3.0" y="462.90000000000003" font-family="monospace" font-size="14.0" fill="#000000" >
  w = wired
</text>
<text x="3.0" y="476.90000000000003" font-family="monospace" font-size="14.0" fill="#000000" >
  s = server
</text>
<text x="3.0" y="490.90000000000003" font-family="monospace" font-size="14.0" fill="#000000" >
  i = infrastructure
</text>
<line x1="10.0" y1="24.0" x2="430.0" y2="24.0" stroke="#000000" stroke-width="2.0" />
<line x1="10.0" y1="24.0" x2="10.0" y2="80.0" stroke="#000000" stroke-width="2.0" />
<line x1="38.0" y1="38.0" x2="108.0" y2="38.0" stroke="#000000" stroke-width="2.0" />
<line x1="136.0" y1="38.0" x2="206.0" y2="38.0" stroke="#000000" stroke-width="2.0" />
<line x1="234.0" y1="38.0" x2="304.0" y2="38.0" stroke="#000000" stroke-width="2.0" />
<line x1="332.0" y1="38.0" x2="402.0" y2="38.0" stroke="#000000" stroke-width="2.0" />
<line x1="430.0" y1="24.0" x2="430.0" y2="52.0" stroke="#000000" stroke-width="2.0" />
<line x1="38.0" y1="38.0" x2="38.0" y2="66.0" stroke="#000000" stroke-width="2.0" />
<line x1="108.0" y1="38.0" x2="108.0" y2="66.0" stroke="#000000" stroke-width="2.0" />
<line x1="136.0" y1="38.0" x2="136.0" y2="66.0" stroke="#000000" stroke-width="2.0" />
<line x1="206.0" y1="38.0" x2="206.0" y2="66.0" stroke="#000000" stroke-width="2.0" />
<line x1="234.0" y1="38.0" x2="234.0" y2="66.0" stroke="#000000" stroke-width="2.0" />
<line x1="304.0" y1="38.0" x2="304.0" y2="66.0" stroke="#000000" stroke-width="2.0" />
<line x1="332.0" y1="38.0" x2="332.0" y2="66.0" stroke="#000000" stroke-width="2.0" />
<line x1="402.0" y1="38.0" x2="402.0" y2="66.0" stroke="#000000" stroke-width="2.0" />
<line x1="38.0" y1="66.0" x2="108.0" y2="66.0" stroke="#000000" stroke-width="2.0" />
<line x1="136.0" y1="66.0" x2="206.0" y2="66.0" stroke="#000000" stroke-width="2.0" />
<line x1="234.0" y1="66.0" x2="304.0" y2="66.0" stroke="#000000" stroke-width="2.0" />
<line x1="332.0" y1="66.0" x2="402.0" y2="66.0" stroke="#000000" stroke-width="2.0" />
<line x1="430.0" y1="52.0" x2="430.0" y2="80.0" stroke="#000000" stroke-width="2.0" />
<line x1="10.0" y1="80.0" x2="66.0" y2="80.0" stroke="#000000" stroke-width="2.0" />
<line x1="66.0" y1="80.0" x2="360.0" y2="80.0" stroke="#000000" stroke-width="2.0" />
<line x1="360.0" y1="80.0" x2="430.0" y2="80.0" stroke="#000000" stroke-width="2.0" />
<line x1="66.0" y1="80.0" x2="66.0" y2="108.0" stroke="#000000" stroke-width="2.0" />
<line x1="360.0" y1="80.0" x2="360.0" y2="101.0" stroke="#000000" stroke-width="2.0" />
<line x1="52.0" y1="108.0" x2="66.0" y2="108.0" stroke="#000000" stroke-width="2.0" />
<line x1="52.0" y1="108.0" x2="52.0" y2="150.0" stroke="#000000" stroke-width="2.0" />
<line x1="10.0" y1="150.0" x2="52.0" y2="150.0" stroke="#000000" stroke-width="2.0" />
<line x1="52.0" y1="150.0" x2="486.0" y2="150.0" stroke="#000000" stroke-width="2.0" />
<line x1="10.0" y1="150.0" x2="10.0" y2="206.0" stroke="#000000" stroke-width="2.0" />
<line x1="38.0" y1="164.0" x2="66.0" y2="164.0" stroke="#000000" stroke-width="2.0" />
<line x1="94.0" y1="164.0" x2="122.0" y2="164.0" stroke="#000000" stroke-width="2.0" />
<line x1="150.0" y1="164.0" x2="178.0" y2="164.0" stroke="#000000" stroke-width="2.0" />
<line x1="206.0" y1="164.0" x2="234.0" y2="164.0" stroke="#000000" stroke-width="2.0" />
<line x1="262.0" y1="164.0" x2="290.0" y2="164.0" stroke="#000000" stroke-width="2.0" />
<line x1="318.0" y1="164.0" x2="346.0" y2="164.0" stroke="#000000" stroke-width="2.0" />
<line x1="374.0" y1="164.0" x2="402.0" y2="164.0" stroke="#000000" stroke-width="2.0" />
<line x1="430.0" y1="164.0" x2="458.0" y2="164.0" stroke="#000000" stroke-width="2.0" />
<line x1="486.0" y1="150.0" x2="486.0" y2="206.0" stroke="#000000" stroke-width="2.0" />
<line x1="38.0" y1="164.0" x2="38.0" y2="192.0" stroke="#000000" stroke-width="2.0" />
<line x1="66.0" y1="164.0" x2="66.0" y2="192.0" stroke="#000000" stroke-width="2.0" />
<line x1="94.0" y1="164.0" x2="94.0" y2="192.0" stroke="#000000" stroke-width="2.0" />
<line x1="122.0" y1="164.0" x2="122.0" y2="192.0" stroke="#000000" stroke-width="2.0" />
<line x1="150.0" y1="164.0" x2="150.0" y2="192.0" stroke="#000000" stroke-width="2.0" />
<line x1="178.0" y1="164.0" x2="178.0" y2="192.0" stroke="#000000" stroke-width="2.0" />
<line x1="206.0" y1="164.0" x2="206.0" y2="192.0" stroke="#000000" stroke-width="2.0" />
<line x1="234.0" y1="164.0" x2="234.0" y2="192.0" stroke="#000000" stroke-width="2.0" />
<line x1="262.0" y1="164.0" x2="262.0" y2="192.0" stroke="#000000" stroke-width="2.0" />
<line x1="290.0" y1="164.0" x2="290.0" y2="192.0" stroke="#000000" stroke-width="2.0" />
<line x1="318.0" y1="164.0" x2="318.0" y2="192.0" stroke="#000000" stroke-width="2.0" />
<line x1="346.0" y1="164.0" x2="346.0" y2="192.0" stroke="#000000" stroke-width="2.0" />
<line x1="374.0" y1="164.0" x2="374.0" y2="192.0" stroke="#000000" stroke-width="2.0" />
<line x1="402.0" y1="164.0" x2="402.0" y2="192.0" stroke="#000000" stroke-width="2.0" />
<line x1="430.0" y1="164.0" x2="430.0" y2="192.0" stroke="#000000" stroke-width="2.0" />
<line x1="458.0" y1="164.0" x2="458.0" y2="192.0" stroke="#000000" stroke-width="2.0" />
<line x1="38.0" y1="192.0" x2="66.0" y2="192.0" stroke="#000000" stroke-width="2.0" />
<line x1="94.0" y1="192.0" x2="122.0" y2="192.0" stroke="#000000" stroke-width="2.0" />
<line x1="150.0" y1="192.0" x2="178.0" y2="192.0" stroke="#000000" stroke-width="2.0" />
<line x1="206.0" y1="192.0" x2="234.0" y2="192.0" stroke="#000000" stroke-width="2.0" />
<line x1="262.0" y1="192.0" x2="290.0" y2="192.0" stroke="#000000" stroke-width="2.0" />
<line x1="318.0" y1="192.0" x2="346.0" y2="192.0" stroke="#000000" stroke-width="2.0" />
<line x1="374.0" y1="192.0" x2="402.0" y2="192.0" stroke="#000000" stroke-width="2.0" />
<line x1="430.0" y1="192.0" x2="458.0" y2="192.0" stroke="#000000" stroke-width="2.0" />
<line x1="10.0" y1="206.0" x2="164.0" y2="206.0" stroke="#000000" stroke-width="2.0" />
<line x1="164.0" y1="206.0" x2="220.0" y2="206.0" stroke="#000000" stroke-width="2.0" />
<line x1="220.0" y1="206.0" x2="444.0" y2="206.0" stroke="#000000" stroke-width="2.0" />
<line x1="444.0" y1="206.0" x2="486.0" y2="206.0" stroke="#000000" stroke-width="2.0" />
<line x1="164.0" y1="206.0" x2="164.0" y2="248.0" stroke="#000000" stroke-width="2.0" />
<line x1="220.0" y1="206.0" x2="220.0" y2="248.0" stroke="#000000" stroke-width="2.0" />
<line x1="444.0" y1="206.0" x2="444.0" y2="227.0" stroke="#000000" stroke-width="2.0" />
<line x1="52.0" y1="248.0" x2="164.0" y2="248.0" stroke="#000000" stroke-width="2.0" />
<line x1="220.0" y1="248.0" x2="556.0" y2="248.0" stroke="#000000" stroke-width="2.0" />
<line x1="52.0" y1="248.0" x2="52.0" y2="276.0" stroke="#000000" stroke-width="2.0" />
<line x1="556.0" y1="248.0" x2="556.0" y2="276.0" stroke="#000000" stroke-width="2.0" />
<line x1="10.0" y1="276.0" x2="52.0" y2="276.0" stroke="#000000" stroke-width="2.0" />
<line x1="52.0" y1="276.0" x2="486.0" y2="276.0" stroke="#000000" stroke-width="2.0" />
<line x1="514.0" y1="276.0" x2="556.0" y2="276.0" stroke="#000000" stroke-width="2.0" />
<line x1="556.0" y1="276.0" x2="990.0" y2="276.0" stroke="#000000" stroke-width="2.0" />
<line x1="10.0" y1="276.0" x2="10.0" y2="332.0" stroke="#000000" stroke-width="2.0" />
<line x1="38.0" y1="290.0" x2="66.0" y2="290.0" stroke="#000000" stroke-width="2.0" />
<line x1="94.0" y1="290.0" x2="122.0" y2="290.0" stroke="#000000" stroke-width="2.0" />
<line x1="150.0" y1="290.0" x2="178.0" y2="290.0" stroke="#000000" stroke-width="2.0" />
<line x1="206.0" y1="290.0" x2="234.0" y2="290.0" stroke="#000000" stroke-width="2.0" />
<line x1="262.0" y1="290.0" x2="290.0" y2="290.0" stroke="#000000" stroke-width="2.0" />
<line x1="318.0" y1="290.0" x2="346.0" y2="290.0" stroke="#000000" stroke-width="2.0" />
<line x1="374.0" y1="290.0" x2="402.0" y2="290.0" stroke="#000000" stroke-width="2.0" />
<line x1="430.0" y1="290.0" x2="458.0" y2="290.0" stroke="#000000" stroke-width="2.0" />
<line x1="486.0" y1="276.0" x2="486.0" y2="332.0" stroke="#000000" stroke-width="2.0" />
<line x1="514.0" y1="276.0" x2="514.0" y2="332.0" stroke="#000000" stroke-width="2.0" />
<line x1="542.0" y1="290.0" x2="570.0" y2="290.0" stroke="#000000" stroke-width="2.0" />
<line x1="598.0" y1="290.0" x2="626.0" y2="290.0" stroke="#000000" stroke-width="2.0" />
<line x1="654.0" y1="290.0" x2="682.0" y2="290.0" stroke="#000000" stroke-width="2.0" />
<line x1="710.0" y1="290.0" x2="738.0" y2="290.0" stroke="#000000" stroke-width="2.0" />
<line x1="766.0" y1="290.0" x2="794.0" y2="290.0" stroke="#000000" stroke-width="2.0" />
<line x1="822.0" y1="290.0" x2="850.0" y2="290.0" stroke="#000000" stroke-width="2.0" />
<line x1="878.0" y1="290.0" x2="906.0" y2="290.0" stroke="#000000" stroke-width="2.0" />
<line x1="934.0" y1="290.0" x2="962.0" y2="290.0" stroke="#000000" stroke-width="2.0" />
<line x1="990.0" y1="276.0" x2="990.0" y2="332.0" stroke="#000000" stroke-width="2.0" />
<line x1="38.0" y1="290.0" x2="38.0" y2="318.0" stroke="#000000" stroke-width="2.0" />
<line x1="66.0" y1="290.0" x2="66.0" y2="318.0" stroke="#000000" stroke-width="2.0" />
<line x1="94.0" y1="290.0" x2="94.0" y2="318.0" stroke="#000000" stroke-width="2.0" />
<line x1="122.0" y1="290.0" x2="122.0" y2="318.0" stroke="#000000" stroke-width="2.0" />
<line x1="150.0" y1="290.0" x2="150.0" y2="318.0" stroke="#000000" stroke-width="2.0" />
<line x1="178.0" y1="290.0" x2="178.0" y2="318.0" stroke="#000000" stroke-width="2.0" />
<line x1="206.0" y1="290.0" x2="206.0" y2="318.0" stroke="#000000" stroke-width="2.0" />
<line x1="234.0" y1="290.0" x2="234.0" y2="318.0" stroke="#000000" stroke-width="2.0" />
<line x1="262.0" y1="290.0" x2="262.0" y2="318.0" stroke="#000000" stroke-width="2.0" />
<line x1="290.0" y1="290.0" x2="290.0" y2="318.0" stroke="#000000" stroke-width="2.0" />
<line x1="318.0" y1="290.0" x2="318.0" y2="318.0" stroke="#000000" stroke-width="2.0" />
<line x1="346.0" y1="290.0" x2="346.0" y2="318.0" stroke="#000000" stroke-width="2.0" />
<line x1="374.0" y1="290.0" x2="374.0" y2="318.0" stroke="#000000" stroke-width="2.0" />
<line x1="402.0" y1="290.0" x2="402.0" y2="318.0" stroke="#000000" stroke-width="2.0" />
<line x1="430.0" y1="290.0" x2="430.0" y2="318.0" stroke="#000000" stroke-width="2.0" />
<line x1="458.0" y1="290.0" x2="458.0" y2="318.0" stroke="#000000" stroke-width="2.0" />
<line x1="542.0" y1="290.0" x2="542.0" y2="318.0" stroke="#000000" stroke-width="2.0" />
<line x1="570.0" y1="290.0" x2="570.0" y2="318.0" stroke="#000000" stroke-width="2.0" />
<line x1="598.0" y1="290.0" x2="598.0" y2="318.0" stroke="#000000" stroke-width="2.0" />
<line x1="626.0" y1="290.0" x2="626.0" y2="318.0" stroke="#000000" stroke-width="2.0" />
<line x1="654.0" y1="290.0" x2="654.0" y2="318.0" stroke="#000000" stroke-width="2.0" />
<line x1="682.0" y1="290.0" x2="682.0" y2="318.0" stroke="#000000" stroke-width="2.0" />
<line x1="710.0" y1="290.0" x2="710.0" y2="318.0" stroke="#000000" stroke-width="2.0" />
<line x1="738.0" y1="290.0" x2="738.0" y2="318.0" stroke="#000000" stroke-width="2.0" />
<line x1="766.0" y1="290.0" x2="766.0" y2="318.0" stroke="#000000" stroke-width="2.0" />
<line x1="794.0" y1="290.0" x2="794.0" y2="318.0" stroke="#000000" stroke-width="2.0" />
<line x1="822.0" y1="290.0" x2="822.0" y2="318.0" stroke="#000000" stroke-width="2.0" />
<line x1="850.0" y1="290.0" x2="850.0" y2="318.0" stroke="#000000" stroke-width="2.0" />
<line x1="878.0" y1="290.0" x2="878.0" y2="318.0" stroke="#000000" stroke-width="2.0" />
<line x1="906.0" y1="290.0" x2="906.0" y2="318.0" stroke="#000000" stroke-width="2.0" />
<line x1="934.0" y1="290.0" x2="934.0" y2="318.0" stroke="#000000" stroke-width="2.0" />
<line x1="962.0" y1="290.0" x2="962.0" y2="318.0" stroke="#000000" stroke-width="2.0" />
<line x1="38.0" y1="318.0" x2="66.0" y2="318.0" stroke="#000000" stroke-width="2.0" />
<line x1="94.0" y1="318.0" x2="122.0" y2="318.0" stroke="#000000" stroke-width="2.0" />
<line x1="150.0" y1="318.0" x2="178.0" y2="318.0" stroke="#000000" stroke-width="2.0" />
<line x1="206.0" y1="318.0" x2="234.0" y2="318.0" stroke="#000000" stroke-width="2.0" />
<line x1="262.0" y1="318.0" x2="290.0" y2="318.0" stroke="#000000" stroke-width="2.0" />
<line x1="318.0" y1="318.0" x2="346.0" y2="318.0" stroke="#000000" stroke-width="2.0" />
<line x1="374.0" y1="318.0" x2="402.0" y2="318.0" stroke="#000000" stroke-width="2.0" />
<line x1="430.0" y1="318.0" x2="458.0" y2="318.0" stroke="#000000" stroke-width="2.0" />
<line x1="542.0" y1="318.0" x2="570.0" y2="318.0" stroke="#000000" stroke-width="2.0" />
<line x1="598.0" y1="318.0" x2="626.0" y2="318.0" stroke="#000000" stroke-width="2.0" />
<line x1="654.0" y1="318.0" x2="682.0" y2="318.0" stroke="#000000" stroke-width="2.0" />
<line x1="710.0" y1="318.0" x2="738.0" y2="318.0" stroke="#000000" stroke-width="2.0" />
<line x1="766.0" y1="318.0" x2="794.0" y2="318.0" stroke="#000000" stroke-width="2.0" />
<line x1="822.0" y1="318.0" x2="850.0" y2="318.0" stroke="#000000" stroke-width="2.0" />
<line x1="878.0" y1="318.0" x2="906.0" y2="318.0" stroke="#000000" stroke-width="2.0" />
<line x1="934.0" y1="318.0" x2="962.0" y2="318.0" stroke="#000000" stroke-width="2.0" />
<line x1="10.0" y1="332.0" x2="276.0" y2="332.0" stroke="#000000" stroke-width="2.0" />
<line x1="276.0" y1="332.0" x2="486.0" y2="332.0" stroke="#000000" stroke-width="2.0" />
<line x1="514.0" y1="332.0" x2="990.0" y2="332.0" stroke="#000000" stroke-width="2.0" />
<line x1="276.0" y1="332.0" x2="276.0" y2="353.0" stroke="#000000" stroke-width="2.0" />
<text x="45.0" y="56.9" font-family="monospace" font-size="14.0" fill="#000000" >
  eth0
</text>
<text x="143.0" y="56.9" font-family="monospace" font-size="14.0" fill="#000000" >
  eth1
</text>
<text x="241.0" y="56.9" font-family="monospace" font-size="14.0" fill="#000000" >
  eth2
</text>
<text x="339.0" y="56.9" font-family="monospace" font-size="14.0" fill="#000000" >
  eth3
</text>
<text x="45.0" y="182.9" font-family="monospace" font-size="14.0" fill="#000000" >
  A
</text>
<text x="101.0" y="182.9" font-family="monospace" font-size="14.0" fill="#000000" >
  D
</text>
<text x="157.0" y="182.9" font-family="monospace" font-size="14.0" fill="#000000" >
  W
</text>
<text x="213.0" y="182.9" font-family="monospace" font-size="14.0" fill="#000000" >
  S
</text>
<text x="269.0" y="182.9" font-family="monospace" font-size="14.0" fill="#000000" >
  D
</text>
<text x="325.0" y="182.9" font-family="monospace" font-size="14.0" fill="#000000" >
  D
</text>
<text x="381.0" y="182.9" font-family="monospace" font-size="14.0" fill="#000000" >
  A
</text>
<text x="437.0" y="182.9" font-family="monospace" font-size="14.0" fill="#000000" >
  I
</text>
<text x="45.0" y="308.90000000000003" font-family="monospace" font-size="14.0" fill="#000000" >
  A
</text>
<text x="101.0" y="308.90000000000003" font-family="monospace" font-size="14.0" fill="#000000" >
  w
</text>
<text x="157.0" y="308.90000000000003" font-family="monospace" font-size="14.0" fill="#000000" >
  w
</text>
<text x="213.0" y="308.90000000000003" font-family="monospace" font-size="14.0" fill="#000000" >
  w
</text>
<text x="269.0" y="308.90000000000003" font-family="monospace" font-size="14.0" fill="#000000" >
  I
</text>
<text x="325.0" y="308.90000000000003" font-family="monospace" font-size="14.0" fill="#000000" >
  w
</text>
<text x="381.0" y="308.90000000000003" font-family="monospace" font-size="14.0" fill="#000000" >
  A
</text>
<text x="437.0" y="308.90000000000003" font-family="monospace" font-size="14.0" fill="#000000" >
  w
</text>
<text x="549.0" y="308.90000000000003" font-family="monospace" font-size="14.0" fill="#000000" >
  A
</text>
<text x="605.0" y="308.90000000000003" font-family="monospace" font-size="14.0" fill="#000000" >
  s
</text>
<text x="661.0" y="308.90000000000003" font-family="monospace" font-size="14.0" fill="#000000" >
  s
</text>
<text x="717.0" y="308.90000000000003" font-family="monospace" font-size="14.0" fill="#000000" >
  s
</text>
<text x="773.0" y="308.90000000000003" font-family="monospace" font-size="14.0" fill="#000000" >
  i
</text>
<text x="829.0" y="308.90000000000003" font-family="monospace" font-size="14.0" fill="#000000" >
  s
</text>
<text x="885.0" y="308.90000000000003" font-family="monospace" font-size="14.0" fill="#000000" >
  A
</text>
<text x="941.0" y="308.90000000000003" font-family="monospace" font-size="14.0" fill="#000000" >
  D
</text>
</svg>
