<?xml version="1.0" standalone="no"?>
<!DOCTYPE svg PUBLIC "-//W3C//DTD SVG 1.1//EN" "http://www.w3.org/Graphics/SVG/1.1/DTD/svg11.dtd">

<svg width="594.0" height="90.0" viewBox="0 0 594.0 90.0" version="1.1" xmlns="http://www.w3.org/2000/svg" xmlns:xlink="http://www.w3.org/1999/xlink">
<!-- automatically generated by aafigure --><text x="297.0" y="42.9" font-family="sans-serif" font-size="14.0" fill="#000000" >
  PIF 1
</text>
<text x="297.0" y="56.9" font-family="sans-serif" font-size="14.0" fill="#000000" >
  VIF 20
</text>
<line x1="10.0" y1="24.0" x2="108.0" y2="24.0" stroke="#000000" stroke-width="2.0" />
<line x1="108.0" y1="24.0" x2="108.0" y2="38.0" stroke="#000000" stroke-width="2.0" />
<line x1="276.0" y1="24.0" x2="430.0" y2="24.0" stroke="#000000" stroke-width="2.0" />
<line x1="430.0" y1="24.0" x2="430.0" y2="38.0" stroke="#000000" stroke-width="2.0" />
<line x1="10.0" y1="24.0" x2="10.0" y2="80.0" stroke="#000000" stroke-width="2.0" />
<g>
    <line x1="17.0" y1="31.0" x2="31.0" y2="45.0" stroke="#000000" stroke-width="2.0" />
    <line x1="31.0" y1="31.0" x2="31.0" y2="31.0" stroke="#000000" stroke-width="2.0" />
    <line x1="17.0" y1="31.0" x2="17.0" y2="31.0" stroke="#000000" stroke-width="2.0" />
    <line x1="17.0" y1="45.0" x2="31.0" y2="31.0" stroke="#000000" stroke-width="2.0" />
    <line x1="17.0" y1="31.0" x2="17.0" y2="45.0" stroke="#000000" stroke-width="2.0" />
    <line x1="17.0" y1="31.0" x2="31.0" y2="31.0" stroke="#000000" stroke-width="2.0" />
    <line x1="17.0" y1="45.0" x2="31.0" y2="59.0" stroke="#000000" stroke-width="2.0" />
    <line x1="31.0" y1="45.0" x2="31.0" y2="45.0" stroke="#000000" stroke-width="2.0" />
    <line x1="17.0" y1="45.0" x2="17.0" y2="45.0" stroke="#000000" stroke-width="2.0" />
    <line x1="17.0" y1="59.0" x2="31.0" y2="45.0" stroke="#000000" stroke-width="2.0" />
    <line x1="17.0" y1="45.0" x2="17.0" y2="59.0" stroke="#000000" stroke-width="2.0" />
    <line x1="17.0" y1="59.0" x2="31.0" y2="73.0" stroke="#000000" stroke-width="2.0" />
    <line x1="31.0" y1="59.0" x2="31.0" y2="59.0" stroke="#000000" stroke-width="2.0" />
    <line x1="17.0" y1="59.0" x2="17.0" y2="59.0" stroke="#000000" stroke-width="2.0" />
    <line x1="17.0" y1="73.0" x2="31.0" y2="59.0" stroke="#000000" stroke-width="2.0" />
    <line x1="17.0" y1="59.0" x2="17.0" y2="73.0" stroke="#000000" stroke-width="2.0" />
    <line x1="17.0" y1="73.0" x2="31.0" y2="73.0" stroke="#000000" stroke-width="2.0" />
    <line x1="31.0" y1="59.0" x2="45.0" y2="73.0" stroke="#000000" stroke-width="2.0" />
    <line x1="45.0" y1="59.0" x2="45.0" y2="59.0" stroke="#000000" stroke-width="2.0" />
    <line x1="31.0" y1="59.0" x2="31.0" y2="59.0" stroke="#000000" stroke-width="2.0" />
    <line x1="31.0" y1="73.0" x2="45.0" y2="59.0" stroke="#000000" stroke-width="2.0" />
    <line x1="31.0" y1="73.0" x2="45.0" y2="73.0" stroke="#000000" stroke-width="2.0" />
    <line x1="31.0" y1="45.0" x2="45.0" y2="59.0" stroke="#000000" stroke-width="2.0" />
    <line x1="45.0" y1="45.0" x2="45.0" y2="45.0" stroke="#000000" stroke-width="2.0" />
    <line x1="31.0" y1="45.0" x2="31.0" y2="45.0" stroke="#000000" stroke-width="2.0" />
    <line x1="31.0" y1="59.0" x2="45.0" y2="45.0" stroke="#000000" stroke-width="2.0" />
    <line x1="31.0" y1="31.0" x2="45.0" y2="45.0" stroke="#000000" stroke-width="2.0" />
    <line x1="45.0" y1="31.0" x2="45.0" y2="31.0" stroke="#000000" stroke-width="2.0" />
    <line x1="31.0" y1="31.0" x2="31.0" y2="31.0" stroke="#000000" stroke-width="2.0" />
    <line x1="31.0" y1="45.0" x2="45.0" y2="31.0" stroke="#000000" stroke-width="2.0" />
    <line x1="31.0" y1="31.0" x2="45.0" y2="31.0" stroke="#000000" stroke-width="2.0" />
    <line x1="45.0" y1="31.0" x2="59.0" y2="45.0" stroke="#000000" stroke-width="2.0" />
    <line x1="59.0" y1="31.0" x2="59.0" y2="31.0" stroke="#000000" stroke-width="2.0" />
    <line x1="45.0" y1="31.0" x2="45.0" y2="31.0" stroke="#000000" stroke-width="2.0" />
    <line x1="45.0" y1="45.0" x2="59.0" y2="31.0" stroke="#000000" stroke-width="2.0" />
    <line x1="45.0" y1="31.0" x2="59.0" y2="31.0" stroke="#000000" stroke-width="2.0" />
    <line x1="45.0" y1="45.0" x2="59.0" y2="59.0" stroke="#000000" stroke-width="2.0" />
    <line x1="59.0" y1="45.0" x2="59.0" y2="45.0" stroke="#000000" stroke-width="2.0" />
    <line x1="45.0" y1="45.0" x2="45.0" y2="45.0" stroke="#000000" stroke-width="2.0" />
    <line x1="45.0" y1="59.0" x2="59.0" y2="45.0" stroke="#000000" stroke-width="2.0" />
    <line x1="45.0" y1="59.0" x2="59.0" y2="73.0" stroke="#000000" stroke-width="2.0" />
    <line x1="59.0" y1="59.0" x2="59.0" y2="59.0" stroke="#000000" stroke-width="2.0" />
    <line x1="45.0" y1="59.0" x2="45.0" y2="59.0" stroke="#000000" stroke-width="2.0" />
    <line x1="45.0" y1="73.0" x2="59.0" y2="59.0" stroke="#000000" stroke-width="2.0" />
    <line x1="45.0" y1="73.0" x2="59.0" y2="73.0" stroke="#000000" stroke-width="2.0" />
    <line x1="59.0" y1="59.0" x2="73.0" y2="73.0" stroke="#000000" stroke-width="2.0" />
    <line x1="73.0" y1="59.0" x2="73.0" y2="59.0" stroke="#000000" stroke-width="2.0" />
    <line x1="59.0" y1="59.0" x2="59.0" y2="59.0" stroke="#000000" stroke-width="2.0" />
    <line x1="59.0" y1="73.0" x2="73.0" y2="59.0" stroke="#000000" stroke-width="2.0" />
    <line x1="59.0" y1="73.0" x2="73.0" y2="73.0" stroke="#000000" stroke-width="2.0" />
    <line x1="59.0" y1="45.0" x2="73.0" y2="59.0" stroke="#000000" stroke-width="2.0" />
    <line x1="73.0" y1="45.0" x2="73.0" y2="45.0" stroke="#000000" stroke-width="2.0" />
    <line x1="59.0" y1="45.0" x2="59.0" y2="45.0" stroke="#000000" stroke-width="2.0" />
    <line x1="59.0" y1="59.0" x2="73.0" y2="45.0" stroke="#000000" stroke-width="2.0" />
    <line x1="59.0" y1="31.0" x2="73.0" y2="45.0" stroke="#000000" stroke-width="2.0" />
    <line x1="73.0" y1="31.0" x2="73.0" y2="31.0" stroke="#000000" stroke-width="2.0" />
    <line x1="59.0" y1="31.0" x2="59.0" y2="31.0" stroke="#000000" stroke-width="2.0" />
    <line x1="59.0" y1="45.0" x2="73.0" y2="31.0" stroke="#000000" stroke-width="2.0" />
    <line x1="59.0" y1="31.0" x2="73.0" y2="31.0" stroke="#000000" stroke-width="2.0" />
    <line x1="73.0" y1="31.0" x2="87.0" y2="45.0" stroke="#000000" stroke-width="2.0" />
    <line x1="87.0" y1="31.0" x2="87.0" y2="31.0" stroke="#000000" stroke-width="2.0" />
    <line x1="73.0" y1="31.0" x2="73.0" y2="31.0" stroke="#000000" stroke-width="2.0" />
    <line x1="73.0" y1="45.0" x2="87.0" y2="31.0" stroke="#000000" stroke-width="2.0" />
    <line x1="73.0" y1="31.0" x2="87.0" y2="31.0" stroke="#000000" stroke-width="2.0" />
    <line x1="73.0" y1="45.0" x2="87.0" y2="59.0" stroke="#000000" stroke-width="2.0" />
    <line x1="87.0" y1="45.0" x2="87.0" y2="45.0" stroke="#000000" stroke-width="2.0" />
    <line x1="73.0" y1="45.0" x2="73.0" y2="45.0" stroke="#000000" stroke-width="2.0" />
    <line x1="73.0" y1="59.0" x2="87.0" y2="45.0" stroke="#000000" stroke-width="2.0" />
    <line x1="73.0" y1="59.0" x2="87.0" y2="73.0" stroke="#000000" stroke-width="2.0" />
    <line x1="87.0" y1="59.0" x2="87.0" y2="59.0" stroke="#000000" stroke-width="2.0" />
    <line x1="73.0" y1="59.0" x2="73.0" y2="59.0" stroke="#000000" stroke-width="2.0" />
    <line x1="73.0" y1="73.0" x2="87.0" y2="59.0" stroke="#000000" stroke-width="2.0" />
    <line x1="73.0" y1="73.0" x2="87.0" y2="73.0" stroke="#000000" stroke-width="2.0" />
    <line x1="87.0" y1="59.0" x2="101.0" y2="73.0" stroke="#000000" stroke-width="2.0" />
    <line x1="101.0" y1="59.0" x2="101.0" y2="59.0" stroke="#000000" stroke-width="2.0" />
    <line x1="87.0" y1="59.0" x2="87.0" y2="59.0" stroke="#000000" stroke-width="2.0" />
    <line x1="87.0" y1="73.0" x2="101.0" y2="59.0" stroke="#000000" stroke-width="2.0" />
    <line x1="101.0" y1="59.0" x2="101.0" y2="73.0" stroke="#000000" stroke-width="2.0" />
    <line x1="87.0" y1="73.0" x2="101.0" y2="73.0" stroke="#000000" stroke-width="2.0" />
    <line x1="87.0" y1="45.0" x2="101.0" y2="59.0" stroke="#000000" stroke-width="2.0" />
    <line x1="101.0" y1="45.0" x2="101.0" y2="45.0" stroke="#000000" stroke-width="2.0" />
    <line x1="87.0" y1="45.0" x2="87.0" y2="45.0" stroke="#000000" stroke-width="2.0" />
    <line x1="87.0" y1="59.0" x2="101.0" y2="45.0" stroke="#000000" stroke-width="2.0" />
    <line x1="101.0" y1="45.0" x2="101.0" y2="59.0" stroke="#000000" stroke-width="2.0" />
    <line x1="87.0" y1="31.0" x2="101.0" y2="45.0" stroke="#000000" stroke-width="2.0" />
    <line x1="101.0" y1="31.0" x2="101.0" y2="31.0" stroke="#000000" stroke-width="2.0" />
    <line x1="87.0" y1="31.0" x2="87.0" y2="31.0" stroke="#000000" stroke-width="2.0" />
    <line x1="87.0" y1="45.0" x2="101.0" y2="31.0" stroke="#000000" stroke-width="2.0" />
    <line x1="101.0" y1="31.0" x2="101.0" y2="45.0" stroke="#000000" stroke-width="2.0" />
    <line x1="87.0" y1="31.0" x2="101.0" y2="31.0" stroke="#000000" stroke-width="2.0" />
</g>
<g>
    <line x1="269.0" y1="38.0" x2="258.5" y2="41.5" stroke="#000000" stroke-width="2.0" />
    <line x1="269.0" y1="38.0" x2="258.5" y2="34.5" stroke="#000000" stroke-width="2.0" />
    <line x1="108.0" y1="38.0" x2="269.0" y2="38.0" stroke="#000000" stroke-width="2.0" />
</g>
<line x1="276.0" y1="24.0" x2="276.0" y2="80.0" stroke="#000000" stroke-width="2.0" />
<g>
    <line x1="591.0" y1="38.0" x2="580.5" y2="41.5" stroke="#000000" stroke-width="2.0" />
    <line x1="591.0" y1="38.0" x2="580.5" y2="34.5" stroke="#000000" stroke-width="2.0" />
    <line x1="430.0" y1="38.0" x2="591.0" y2="38.0" stroke="#000000" stroke-width="2.0" />
</g>
<line x1="108.0" y1="38.0" x2="108.0" y2="80.0" stroke="#000000" stroke-width="2.0" />
<line x1="430.0" y1="38.0" x2="430.0" y2="80.0" stroke="#000000" stroke-width="2.0" />
<line x1="10.0" y1="80.0" x2="108.0" y2="80.0" stroke="#000000" stroke-width="2.0" />
<line x1="276.0" y1="80.0" x2="430.0" y2="80.0" stroke="#000000" stroke-width="2.0" />
<text x="17.0" y="14.9" font-family="sans-serif" font-size="14.0" fill="#000000" >
  Device
</text>
<text x="311.0" y="14.9" font-family="sans-serif" font-size="14.0" fill="#000000" >
  Port
</text>
<text x="129.0" y="56.9" font-family="sans-serif" font-size="14.0" fill="#000000" >
  untagged
</text>
<text x="493.0" y="56.9" font-family="sans-serif" font-size="14.0" fill="#000000" >
  1
</text>
</svg>
