<?xml version="1.0" standalone="no"?>
<!DOCTYPE svg PUBLIC "-//W3C//DTD SVG 1.1//EN" "http://www.w3.org/Graphics/SVG/1.1/DTD/svg11.dtd">

<svg width="538.0" height="174.0" viewBox="0 0 538.0 174.0" version="1.1" xmlns="http://www.w3.org/2000/svg" xmlns:xlink="http://www.w3.org/1999/xlink">
<!-- automatically generated by aafigure --><line x1="164.0" y1="24.0" x2="360.0" y2="24.0" stroke="#000000" stroke-width="2.0" />
<line x1="164.0" y1="24.0" x2="164.0" y2="52.0" stroke="#000000" stroke-width="2.0" />
<line x1="192.0" y1="38.0" x2="220.0" y2="38.0" stroke="#000000" stroke-width="2.0" />
<line x1="248.0" y1="38.0" x2="276.0" y2="38.0" stroke="#000000" stroke-width="2.0" />
<line x1="304.0" y1="38.0" x2="332.0" y2="38.0" stroke="#000000" stroke-width="2.0" />
<line x1="360.0" y1="24.0" x2="360.0" y2="52.0" stroke="#000000" stroke-width="2.0" />
<line x1="66.0" y1="52.0" x2="164.0" y2="52.0" stroke="#000000" stroke-width="2.0" />
<line x1="192.0" y1="38.0" x2="192.0" y2="66.0" stroke="#000000" stroke-width="2.0" />
<line x1="220.0" y1="38.0" x2="220.0" y2="66.0" stroke="#000000" stroke-width="2.0" />
<line x1="248.0" y1="38.0" x2="248.0" y2="66.0" stroke="#000000" stroke-width="2.0" />
<line x1="276.0" y1="38.0" x2="276.0" y2="66.0" stroke="#000000" stroke-width="2.0" />
<line x1="304.0" y1="38.0" x2="304.0" y2="66.0" stroke="#000000" stroke-width="2.0" />
<line x1="332.0" y1="38.0" x2="332.0" y2="66.0" stroke="#000000" stroke-width="2.0" />
<line x1="360.0" y1="52.0" x2="458.0" y2="52.0" stroke="#000000" stroke-width="2.0" />
<line x1="66.0" y1="52.0" x2="66.0" y2="108.0" stroke="#000000" stroke-width="2.0" />
<line x1="164.0" y1="52.0" x2="164.0" y2="80.0" stroke="#000000" stroke-width="2.0" />
<line x1="192.0" y1="66.0" x2="220.0" y2="66.0" stroke="#000000" stroke-width="2.0" />
<line x1="248.0" y1="66.0" x2="276.0" y2="66.0" stroke="#000000" stroke-width="2.0" />
<line x1="304.0" y1="66.0" x2="332.0" y2="66.0" stroke="#000000" stroke-width="2.0" />
<line x1="360.0" y1="52.0" x2="360.0" y2="80.0" stroke="#000000" stroke-width="2.0" />
<line x1="458.0" y1="52.0" x2="458.0" y2="108.0" stroke="#000000" stroke-width="2.0" />
<line x1="164.0" y1="80.0" x2="262.0" y2="80.0" stroke="#000000" stroke-width="2.0" />
<line x1="262.0" y1="80.0" x2="360.0" y2="80.0" stroke="#000000" stroke-width="2.0" />
<line x1="262.0" y1="80.0" x2="262.0" y2="108.0" stroke="#000000" stroke-width="2.0" />
<line x1="10.0" y1="108.0" x2="66.0" y2="108.0" stroke="#000000" stroke-width="2.0" />
<line x1="66.0" y1="108.0" x2="136.0" y2="108.0" stroke="#000000" stroke-width="2.0" />
<line x1="164.0" y1="108.0" x2="262.0" y2="108.0" stroke="#000000" stroke-width="2.0" />
<line x1="262.0" y1="108.0" x2="360.0" y2="108.0" stroke="#000000" stroke-width="2.0" />
<line x1="388.0" y1="108.0" x2="458.0" y2="108.0" stroke="#000000" stroke-width="2.0" />
<line x1="458.0" y1="108.0" x2="528.0" y2="108.0" stroke="#000000" stroke-width="2.0" />
<line x1="10.0" y1="108.0" x2="10.0" y2="164.0" stroke="#000000" stroke-width="2.0" />
<line x1="24.0" y1="122.0" x2="52.0" y2="122.0" stroke="#000000" stroke-width="2.0" />
<line x1="80.0" y1="122.0" x2="108.0" y2="122.0" stroke="#000000" stroke-width="2.0" />
<line x1="136.0" y1="108.0" x2="136.0" y2="164.0" stroke="#000000" stroke-width="2.0" />
<line x1="164.0" y1="108.0" x2="164.0" y2="164.0" stroke="#000000" stroke-width="2.0" />
<line x1="192.0" y1="122.0" x2="220.0" y2="122.0" stroke="#000000" stroke-width="2.0" />
<line x1="248.0" y1="122.0" x2="276.0" y2="122.0" stroke="#000000" stroke-width="2.0" />
<line x1="304.0" y1="122.0" x2="332.0" y2="122.0" stroke="#000000" stroke-width="2.0" />
<line x1="360.0" y1="108.0" x2="360.0" y2="164.0" stroke="#000000" stroke-width="2.0" />
<line x1="388.0" y1="108.0" x2="388.0" y2="164.0" stroke="#000000" stroke-width="2.0" />
<line x1="416.0" y1="122.0" x2="444.0" y2="122.0" stroke="#000000" stroke-width="2.0" />
<line x1="472.0" y1="122.0" x2="500.0" y2="122.0" stroke="#000000" stroke-width="2.0" />
<line x1="528.0" y1="108.0" x2="528.0" y2="164.0" stroke="#000000" stroke-width="2.0" />
<line x1="24.0" y1="122.0" x2="24.0" y2="150.0" stroke="#000000" stroke-width="2.0" />
<line x1="52.0" y1="122.0" x2="52.0" y2="150.0" stroke="#000000" stroke-width="2.0" />
<line x1="80.0" y1="122.0" x2="80.0" y2="150.0" stroke="#000000" stroke-width="2.0" />
<line x1="108.0" y1="122.0" x2="108.0" y2="150.0" stroke="#000000" stroke-width="2.0" />
<line x1="192.0" y1="122.0" x2="192.0" y2="150.0" stroke="#000000" stroke-width="2.0" />
<line x1="220.0" y1="122.0" x2="220.0" y2="150.0" stroke="#000000" stroke-width="2.0" />
<line x1="248.0" y1="122.0" x2="248.0" y2="150.0" stroke="#000000" stroke-width="2.0" />
<line x1="276.0" y1="122.0" x2="276.0" y2="150.0" stroke="#000000" stroke-width="2.0" />
<line x1="304.0" y1="122.0" x2="304.0" y2="150.0" stroke="#000000" stroke-width="2.0" />
<line x1="332.0" y1="122.0" x2="332.0" y2="150.0" stroke="#000000" stroke-width="2.0" />
<line x1="416.0" y1="122.0" x2="416.0" y2="150.0" stroke="#000000" stroke-width="2.0" />
<line x1="444.0" y1="122.0" x2="444.0" y2="150.0" stroke="#000000" stroke-width="2.0" />
<line x1="472.0" y1="122.0" x2="472.0" y2="150.0" stroke="#000000" stroke-width="2.0" />
<line x1="500.0" y1="122.0" x2="500.0" y2="150.0" stroke="#000000" stroke-width="2.0" />
<line x1="24.0" y1="150.0" x2="52.0" y2="150.0" stroke="#000000" stroke-width="2.0" />
<line x1="80.0" y1="150.0" x2="108.0" y2="150.0" stroke="#000000" stroke-width="2.0" />
<line x1="192.0" y1="150.0" x2="220.0" y2="150.0" stroke="#000000" stroke-width="2.0" />
<line x1="248.0" y1="150.0" x2="276.0" y2="150.0" stroke="#000000" stroke-width="2.0" />
<line x1="304.0" y1="150.0" x2="332.0" y2="150.0" stroke="#000000" stroke-width="2.0" />
<line x1="416.0" y1="150.0" x2="444.0" y2="150.0" stroke="#000000" stroke-width="2.0" />
<line x1="472.0" y1="150.0" x2="500.0" y2="150.0" stroke="#000000" stroke-width="2.0" />
<line x1="10.0" y1="164.0" x2="136.0" y2="164.0" stroke="#000000" stroke-width="2.0" />
<line x1="164.0" y1="164.0" x2="360.0" y2="164.0" stroke="#000000" stroke-width="2.0" />
<line x1="388.0" y1="164.0" x2="528.0" y2="164.0" stroke="#000000" stroke-width="2.0" />
<text x="199.0" y="14.9" font-family="monospace" font-size="14.0" fill="#000000" >
  1
</text>
<text x="255.0" y="14.9" font-family="monospace" font-size="14.0" fill="#000000" >
  2
</text>
<text x="311.0" y="14.9" font-family="monospace" font-size="14.0" fill="#000000" >
  3
</text>
<text x="199.0" y="56.9" font-family="monospace" font-size="14.0" fill="#000000" >
  2
</text>
<text x="255.0" y="56.9" font-family="monospace" font-size="14.0" fill="#000000" >
  3
</text>
<text x="311.0" y="56.9" font-family="monospace" font-size="14.0" fill="#000000" >
  4
</text>
<text x="31.0" y="140.9" font-family="monospace" font-size="14.0" fill="#000000" >
  2
</text>
<text x="87.0" y="140.9" font-family="monospace" font-size="14.0" fill="#000000" >
  2
</text>
<text x="199.0" y="140.9" font-family="monospace" font-size="14.0" fill="#000000" >
  3
</text>
<text x="255.0" y="140.9" font-family="monospace" font-size="14.0" fill="#000000" >
  3
</text>
<text x="311.0" y="140.9" font-family="monospace" font-size="14.0" fill="#000000" >
  3
</text>
<text x="423.0" y="140.9" font-family="monospace" font-size="14.0" fill="#000000" >
  4
</text>
<text x="479.0" y="140.9" font-family="monospace" font-size="14.0" fill="#000000" >
  4
</text>
</svg>
